<?xml version="1.0" encoding="UTF-8" standalone="no"?>
<svg viewBox="-3 -3 30 30" version="1.1" xmlns="http://www.w3.org/2000/svg">
 <path fill="none" stroke="currentColor" stroke-width="1.2"
   d="m 7,1 0,5 -5,0 0,5 5,0 0,2.5 m 5,.5 0,-3 5,0 0,-5 -5,0 0,-5 -5 0 0,1"/>
 <path fill="currentColor" stroke="none" stroke-width="0.5"
   d="m 5,14.5 v 8.53 h 1.717
   v -3.01 h 1.189 c 0.574,0 1.066,-0.11 1.477,-0.33 0.414,-0.23 0.732,-0.54 0.955,-0.94 0.225,-0.41 0.335,-0.89 0.335,-1.44 0,-0.54 -0.11,-1.03 -0.335,-1.45 -0.222,-0.42 -0.541,-0.76 -0.955,-1 -0.41,-0.24 -0.902,-0.36 -1.476,-0.36 z
   m 6.827,0
   v 8.53 h 0.72 0.99 0.51 c 0.51,0 0.96,-0.1 1.37,-0.24 0.41,-0.16 0.75,-0.4 1.04,-0.7 0.29,-0.31 0.51,-0.68 0.66,-1.13 0.16,-0.44 0.24,-0.96 0.24,-1.53
   v -1.32 c 0,-0.58 -0.1,-1.09 -0.24,-1.54 -0.15,-0.45 -0.37,-0.82 -0.66,-1.13 -0.29,-0.31 -0.64,-0.54 -1.04,-0.7 -0.4,-0.16 -0.85,-0.24 -1.34,-0.24 h -0.54 -1.02 z
   m6.78,0 v 8.53 h 1.71 v -3.49 h 2.67 v -1.42 h -2.67 v -2.2 h 3 v -1.42
   h-3 -0.43 z m -11.89,1.42 h 1.19
   c 0.246,0 0.445,0.1 0.597,0.2 0.153,0.13 0.264,0.3 0.334,0.52 0.07,0.21 0.106,0.44 0.106,0.69 0,0.24 -0.04,0.46 -0.106,0.65 -0.07,0.19 -0.181,0.35 -0.334,0.45 -0.152,0.11 -0.351,0.17 -0.597,0.17
   h -1.19 z m 6.82,0 h 0.54
   c 0.3,0 0.55,0 0.75,0.12 0.21,0.1 0.37,0.21 0.49,0.38 0.12,0.17 0.21,0.4 0.26,0.67 0.1,0.28 0.1,0.61 0.1,1 v 1.33
   c 0,0.52 0,0.94 -0.14,1.26 -0.1,0.32 -0.26,0.56 -0.49,0.71 -0.23,0.14 -0.55,0.22 -0.97,0.22 h -0.51 z" />
</svg>
