<?xml version="1.0" encoding="UTF-8" standalone="no"?>
<svg
   viewBox="0 0 24 24" version="1.1"
   xmlns="http://www.w3.org/2000/svg">
    <text x="0" y="9.5" stroke="#DD0000"  fill="#DD0000" font-family="Roboto" font-size="12" >PDF</text>
    <g transform="translate(3,8) scale(0.8) rotate(-20)">
    <path d="M12 2a5.5 5.5 0 0 0-5.5 5.5V10H6c-1.1 0-2 .9-2 2v8c0 1.1.9 2 2 2h12c1.1 0 2-.9 2-2v-8c0-1.1-.9-2-2-2h-.5V7.5A5.5 5.5 0 0 0 12 2zm0 2a3.5 3.5 0 0 1 3.5 3.5V10h-7V7.5A3.5 3.5 0 0 1 12 4z"/>
    <path
     style="fill:white;stroke:none"
     d="M 12 14.5 C 10.28 14.5 10.04 16.69 11.25 17.33 L 10.56 20 L 13.48 20 L 12.76 17.318 C 14 16.670 13.7 14.5 12 14.5 z " />
    </g>
</svg>
