<?xml version="1.0" encoding="UTF-8" standalone="no"?>
<svg viewBox="0 0 24 24" version="1.1" xmlns="http://www.w3.org/2000/svg">
    <g transform="translate(0.5,6) scale(0.9) rotate(-20)">
        <path d="M 14.11 2.418 A 5.5 5.5 0 0 0 12 2 A 5.5 5.5 0 0 0 6.501 7.5 L 6.501 10 L 6 9.999 C 4.9 9.999 3.999 10.9 3.999 12 L 4 20 C 4 21.1 4.899 22 5.999 22 L 18 22 C 19.1 22 20 21.1 20 20 L 20 12 C 20 10.9 19.1 9.999 18 9.999 L 17.5 10 L 17.5 7.501 A 5.5 5.5 0 0 0 14.11 2.418 z M 13.52 4.348 A 3.5 3.5 0 0 1 15.5 7.501 L 15.5 10 L 8.501 9.999 L 8.501 7.5 A 3.5 3.5 0 0 1 12 4.001 A 3.5 3.5 0 0 1 13.52 4.348 z M 12.57 14.59 C 13.75 15.02 13.85 16.75 12.76 17.32 L 13.48 20 L 10.56 20 L 11.25 17.33 C 10.04 16.69 10.28 14.5 12 14.5 C 12.21 14.5 12.4 14.53 12.57 14.59 z "/>
    </g>
    <text x="0" y="9.5" stroke="#DD0000" fill="#DD0000" font-family="Roboto" font-size="12">PDF</text>
</svg>
